<svg id="visual" viewBox="0 0 960 540" width="960" height="540" xmlns="http://www.w3.org/2000/svg" xmlns:xlink="http://www.w3.org/1999/xlink" version="1.1"><g transform="translate(-20.999666815470817 514.1861542701823)"><path d="M178.8 -188.3C256.4 -148 360.8 -115 390.1 -53.4C419.3 8.3 373.3 98.7 318.7 175.1C264 251.6 200.6 314.2 128.6 330.5C56.7 346.7 -23.8 316.7 -107.3 288.9C-190.8 261.1 -277.3 235.5 -321.3 176.9C-365.3 118.4 -366.8 26.7 -336.8 -44.8C-306.8 -116.3 -245.3 -167.7 -183.9 -210.9C-122.6 -254.1 -61.3 -289 -5.3 -282.7C50.6 -276.3 101.2 -228.7 178.8 -188.3" fill="none" stroke="#ff3333" stroke-width="10"></path></g></svg>