<svg id="visual" viewBox="0 0 960 540" width="960" height="540" xmlns="http://www.w3.org/2000/svg" xmlns:xlink="http://www.w3.org/1999/xlink" version="1.1"><rect x="0" y="0" width="960" height="540" fill="#000000"></rect><path d="M0 389L20 382.2C40 375.3 80 361.7 120 357.2C160 352.7 200 357.3 240 350.5C280 343.7 320 325.3 360 328C400 330.7 440 354.3 480 366.5C520 378.7 560 379.3 600 368.7C640 358 680 336 720 339.7C760 343.3 800 372.7 840 372.5C880 372.3 920 342.7 940 327.8L960 313L960 541L940 541C920 541 880 541 840 541C800 541 760 541 720 541C680 541 640 541 600 541C560 541 520 541 480 541C440 541 400 541 360 541C320 541 280 541 240 541C200 541 160 541 120 541C80 541 40 541 20 541L0 541Z" fill="#ff3333"></path><path d="M0 396L20 391.3C40 386.7 80 377.3 120 377.3C160 377.3 200 386.7 240 387.5C280 388.3 320 380.7 360 390.8C400 401 440 429 480 440C520 451 560 445 600 440.2C640 435.3 680 431.7 720 421.3C760 411 800 394 840 392.5C880 391 920 405 940 412L960 419L960 541L940 541C920 541 880 541 840 541C800 541 760 541 720 541C680 541 640 541 600 541C560 541 520 541 480 541C440 541 400 541 360 541C320 541 280 541 240 541C200 541 160 541 120 541C80 541 40 541 20 541L0 541Z" fill="#c50059"></path><path d="M0 481L20 475C40 469 80 457 120 455.8C160 454.7 200 464.3 240 470.8C280 477.3 320 480.7 360 474.5C400 468.3 440 452.7 480 440.3C520 428 560 419 600 428.3C640 437.7 680 465.3 720 464C760 462.7 800 432.3 840 417.5C880 402.7 920 403.3 940 403.7L960 404L960 541L940 541C920 541 880 541 840 541C800 541 760 541 720 541C680 541 640 541 600 541C560 541 520 541 480 541C440 541 400 541 360 541C320 541 280 541 240 541C200 541 160 541 120 541C80 541 40 541 20 541L0 541Z" fill="#760060"></path><path d="M0 467L20 471.8C40 476.7 80 486.3 120 484.3C160 482.3 200 468.7 240 469.7C280 470.7 320 486.3 360 496.5C400 506.7 440 511.3 480 502.5C520 493.7 560 471.3 600 469.2C640 467 680 485 720 491.7C760 498.3 800 493.7 840 493.7C880 493.7 920 498.3 940 500.7L960 503L960 541L940 541C920 541 880 541 840 541C800 541 760 541 720 541C680 541 640 541 600 541C560 541 520 541 480 541C440 541 400 541 360 541C320 541 280 541 240 541C200 541 160 541 120 541C80 541 40 541 20 541L0 541Z" fill="#030452"></path></svg>