<svg id="visual" viewBox="0 0 900 300" width="900" height="300" xmlns="http://www.w3.org/2000/svg" xmlns:xlink="http://www.w3.org/1999/xlink" version="1.1"><path d="M0 182L18.8 184.2C37.7 186.3 75.3 190.7 112.8 193.5C150.3 196.3 187.7 197.7 225.2 193.8C262.7 190 300.3 181 337.8 176.7C375.3 172.3 412.7 172.7 450.2 176.5C487.7 180.3 525.3 187.7 562.8 189.5C600.3 191.3 637.7 187.7 675.2 181.5C712.7 175.3 750.3 166.7 787.8 164.2C825.3 161.7 862.7 165.3 881.3 167.2L900 169L900 301L881.3 301C862.7 301 825.3 301 787.8 301C750.3 301 712.7 301 675.2 301C637.7 301 600.3 301 562.8 301C525.3 301 487.7 301 450.2 301C412.7 301 375.3 301 337.8 301C300.3 301 262.7 301 225.2 301C187.7 301 150.3 301 112.8 301C75.3 301 37.7 301 18.8 301L0 301Z" fill="#030452"></path><path d="M0 184L18.8 187.5C37.7 191 75.3 198 112.8 200C150.3 202 187.7 199 225.2 196.5C262.7 194 300.3 192 337.8 188.8C375.3 185.7 412.7 181.3 450.2 179.3C487.7 177.3 525.3 177.7 562.8 183.3C600.3 189 637.7 200 675.2 202.3C712.7 204.7 750.3 198.3 787.8 197.5C825.3 196.7 862.7 201.3 881.3 203.7L900 206L900 301L881.3 301C862.7 301 825.3 301 787.8 301C750.3 301 712.7 301 675.2 301C637.7 301 600.3 301 562.8 301C525.3 301 487.7 301 450.2 301C412.7 301 375.3 301 337.8 301C300.3 301 262.7 301 225.2 301C187.7 301 150.3 301 112.8 301C75.3 301 37.7 301 18.8 301L0 301Z" fill="#120766"></path><path d="M0 203L18.8 205.8C37.7 208.7 75.3 214.3 112.8 215.8C150.3 217.3 187.7 214.7 225.2 212.3C262.7 210 300.3 208 337.8 208.2C375.3 208.3 412.7 210.7 450.2 208.5C487.7 206.3 525.3 199.7 562.8 200.3C600.3 201 637.7 209 675.2 214.5C712.7 220 750.3 223 787.8 219.3C825.3 215.7 862.7 205.3 881.3 200.2L900 195L900 301L881.3 301C862.7 301 825.3 301 787.8 301C750.3 301 712.7 301 675.2 301C637.7 301 600.3 301 562.8 301C525.3 301 487.7 301 450.2 301C412.7 301 375.3 301 337.8 301C300.3 301 262.7 301 225.2 301C187.7 301 150.3 301 112.8 301C75.3 301 37.7 301 18.8 301L0 301Z" fill="#21097a"></path><path d="M0 211L18.8 213.3C37.7 215.7 75.3 220.3 112.8 222.3C150.3 224.3 187.7 223.7 225.2 223.2C262.7 222.7 300.3 222.3 337.8 225.5C375.3 228.7 412.7 235.3 450.2 235.3C487.7 235.3 525.3 228.7 562.8 226.7C600.3 224.7 637.7 227.3 675.2 225.8C712.7 224.3 750.3 218.7 787.8 219.8C825.3 221 862.7 229 881.3 233L900 237L900 301L881.3 301C862.7 301 825.3 301 787.8 301C750.3 301 712.7 301 675.2 301C637.7 301 600.3 301 562.8 301C525.3 301 487.7 301 450.2 301C412.7 301 375.3 301 337.8 301C300.3 301 262.7 301 225.2 301C187.7 301 150.3 301 112.8 301C75.3 301 37.7 301 18.8 301L0 301Z" fill="#310a8e"></path><path d="M0 257L18.8 254.7C37.7 252.3 75.3 247.7 112.8 246C150.3 244.3 187.7 245.7 225.2 246.3C262.7 247 300.3 247 337.8 245.7C375.3 244.3 412.7 241.7 450.2 240.3C487.7 239 525.3 239 562.8 239C600.3 239 637.7 239 675.2 237.5C712.7 236 750.3 233 787.8 237C825.3 241 862.7 252 881.3 257.5L900 263L900 301L881.3 301C862.7 301 825.3 301 787.8 301C750.3 301 712.7 301 675.2 301C637.7 301 600.3 301 562.8 301C525.3 301 487.7 301 450.2 301C412.7 301 375.3 301 337.8 301C300.3 301 262.7 301 225.2 301C187.7 301 150.3 301 112.8 301C75.3 301 37.7 301 18.8 301L0 301Z" fill="#420aa3"></path><path d="M0 252L18.8 251.2C37.7 250.3 75.3 248.7 112.8 250.7C150.3 252.7 187.7 258.3 225.2 263C262.7 267.7 300.3 271.3 337.8 269.8C375.3 268.3 412.7 261.7 450.2 262.3C487.7 263 525.3 271 562.8 271.3C600.3 271.7 637.7 264.3 675.2 259.2C712.7 254 750.3 251 787.8 251.5C825.3 252 862.7 256 881.3 258L900 260L900 301L881.3 301C862.7 301 825.3 301 787.8 301C750.3 301 712.7 301 675.2 301C637.7 301 600.3 301 562.8 301C525.3 301 487.7 301 450.2 301C412.7 301 375.3 301 337.8 301C300.3 301 262.7 301 225.2 301C187.7 301 150.3 301 112.8 301C75.3 301 37.7 301 18.8 301L0 301Z" fill="#5307b7"></path><path d="M0 289L18.8 287.3C37.7 285.7 75.3 282.3 112.8 278.8C150.3 275.3 187.7 271.7 225.2 270.5C262.7 269.3 300.3 270.7 337.8 271.8C375.3 273 412.7 274 450.2 273C487.7 272 525.3 269 562.8 271.7C600.3 274.3 637.7 282.7 675.2 286.3C712.7 290 750.3 289 787.8 288.8C825.3 288.7 862.7 289.3 881.3 289.7L900 290L900 301L881.3 301C862.7 301 825.3 301 787.8 301C750.3 301 712.7 301 675.2 301C637.7 301 600.3 301 562.8 301C525.3 301 487.7 301 450.2 301C412.7 301 375.3 301 337.8 301C300.3 301 262.7 301 225.2 301C187.7 301 150.3 301 112.8 301C75.3 301 37.7 301 18.8 301L0 301Z" fill="#6600cc"></path></svg>